<svg height="150" viewBox="0 0 150 150" width="150" xmlns="http://www.w3.org/2000/svg"><path d="m24.023438 9.082031h101.953124c10.253907 0 18.75 8.496094 18.75 18.75v94.335938c0 10.253906-8.496093 18.75-18.75 18.75h-101.953124c-10.253907 0-18.75-8.496094-18.75-18.75v-94.335938c0-10.253906 8.496093-18.75 18.75-18.75zm0 0" fill="#008000"/><path d="m64.746094 14.648438v15.234374c-22.851563 0-41.308594 20.214844-41.308594 45.117188 0 19.628906 11.425781 36.621094 27.539062 42.773438v-16.699219c-8.203124-5.273438-13.769531-14.941407-13.769531-26.074219 0-16.699219 12.304688-30.175781 27.539063-30.175781v15.234375l27.539062-22.851563zm34.277344 17.871093v16.40625c8.203124 5.273438 13.769531 14.941407 13.769531 26.074219 0 16.699219-12.304688 30.175781-27.539063 30.175781v-15.234375l-27.539062 22.851563 27.539062 22.558593v-15.234374c22.851563 0 41.308594-20.214844 41.308594-45.117188 0-19.628906-11.425781-36.328125-27.539062-42.480469zm0 0" fill="#dadada"/></svg>