<svg height="150" viewBox="0 0 150 150" width="150" xmlns="http://www.w3.org/2000/svg"><g fill-rule="evenodd"><path d="m141.013333 45.493333 741.973334 1.013334v932h-741.973334zm0 0" fill="#fff" stroke="#000" stroke-width="4" transform="scale(.146484)"/><g fill="#4d5965"><path d="m38.820312 50.390625c-3.273437.015625-5.917968 2.664063-5.933593 5.933594v37.351562c.015625 3.269531 2.660156 5.917969 5.929687 5.933594h72.363282c3.273437-.015625 5.917968-2.664063 5.933593-5.933594v-37.351562c-.015625-3.269531-2.660156-5.917969-5.929687-5.933594zm0 4.539063h72.359376c.792968 0 1.394531.585937 1.394531 1.394531v37.351562c0 .792969-.585938 1.394531-1.394531 1.394531h-72.359376c-.792968 0-1.394531-.585937-1.394531-1.394531v-37.351562c0-.792969.585938-1.394531 1.394531-1.394531zm0 0"/><path d="m89.867188 61.597656h7.03125v13.035156h7.910156l-11.425782 13.769532-11.570312-13.769532h8.054688zm-23.4375 0h7.03125v25.78125h-7.03125v-14.941406l-7.03125 7.175781-7.175782-7.175781v14.941406h-7.03125v-25.78125h7.03125l7.175782 7.761719zm0 0"/></g></g></svg>