<?xml version="1.0" encoding="UTF-8"?>
<svg xmlns="http://www.w3.org/2000/svg" xmlns:xlink="http://www.w3.org/1999/xlink" width="150px" height="150px" viewBox="0 0 150 150" version="1.1">
<g id="surface1">
<path style="fill-rule:evenodd;fill:rgb(100%,100%,100%);fill-opacity:1;stroke-width:4;stroke-linecap:butt;stroke-linejoin:miter;stroke:rgb(0%,0%,0%);stroke-opacity:1;stroke-miterlimit:4;" d="M 141.013333 45.493333 L 882.986667 46.506667 L 882.986667 978.506667 L 141.013333 978.506667 Z M 141.013333 45.493333 " transform="matrix(0.146484,0,0,0.146484,0,0)"/>
<path style=" stroke:none;fill-rule:evenodd;fill:rgb(30.196078%,34.901961%,39.607843%);fill-opacity:1;" d="M 38.820312 50.390625 C 35.546875 50.40625 32.902344 53.054688 32.886719 56.324219 L 32.886719 93.675781 C 32.902344 96.945312 35.546875 99.59375 38.816406 99.609375 L 111.179688 99.609375 C 114.453125 99.59375 117.097656 96.945312 117.113281 93.675781 L 117.113281 56.324219 C 117.097656 53.054688 114.453125 50.40625 111.183594 50.390625 Z M 38.820312 54.929688 L 111.179688 54.929688 C 111.972656 54.929688 112.574219 55.515625 112.574219 56.324219 L 112.574219 93.675781 C 112.574219 94.46875 111.988281 95.070312 111.179688 95.070312 L 38.820312 95.070312 C 38.027344 95.070312 37.425781 94.484375 37.425781 93.675781 L 37.425781 56.324219 C 37.425781 55.53125 38.011719 54.929688 38.820312 54.929688 Z M 38.820312 54.929688 "/>
<path style=" stroke:none;fill-rule:evenodd;fill:rgb(30.196078%,34.901961%,39.607843%);fill-opacity:1;" d="M 89.867188 61.597656 L 96.898438 61.597656 L 96.898438 74.632812 L 104.808594 74.632812 L 93.382812 88.402344 L 81.8125 74.632812 L 89.867188 74.632812 Z M 66.429688 61.597656 L 73.460938 61.597656 L 73.460938 87.378906 L 66.429688 87.378906 L 66.429688 72.4375 L 59.398438 79.613281 L 52.222656 72.4375 L 52.222656 87.378906 L 45.191406 87.378906 L 45.191406 61.597656 L 52.222656 61.597656 L 59.398438 69.359375 Z M 66.429688 61.597656 "/>
</g>
</svg>
